<?xml version="1.0" standalone="no"?>
<!DOCTYPE svg PUBLIC "-//W3C//DTD SVG 20010904//EN"
 "http://www.w3.org/TR/2001/REC-SVG-20010904/DTD/svg10.dtd">
<svg version="1.0" xmlns="http://www.w3.org/2000/svg"
 width="512.000000pt" height="512.000000pt" viewBox="0 0 512.000000 512.000000"
 preserveAspectRatio="xMidYMid meet">
<metadata>
Created by potrace 1.11, written by Peter Selinger 2001-2013
</metadata>
<g transform="translate(0.000000,512.000000) scale(0.100000,-0.100000)"
fill="#000000" stroke="none">
<path d="M2290 4736 c-765 -98 -1405 -554 -1741 -1240 -151 -311 -221 -616
-222 -971 -1 -366 70 -674 229 -994 180 -363 430 -649 761 -870 164 -110 412
-228 579 -277 32 -9 65 -19 72 -21 35 -14 -2 174 -59 295 -128 277 -374 461
-810 606 -295 99 -350 163 -369 429 -6 80 -19 169 -34 227 -36 136 -43 228
-22 284 25 65 91 120 210 176 146 68 165 96 275 424 38 111 78 220 89 242 31
62 128 146 212 187 125 59 320 97 503 97 155 0 172 31 167 295 -8 360 -7 387
25 419 36 35 111 -47 141 -154 44 -157 56 -189 83 -232 17 -26 48 -59 70 -74
37 -24 43 -25 72 -14 65 27 158 178 313 508 222 470 258 523 298 439 22 -47
42 -151 88 -472 85 -583 169 -918 293 -1160 105 -205 299 -468 562 -763 167
-188 502 -525 514 -517 18 10 92 219 126 350 52 200 69 340 69 565 0 274 -32
475 -116 720 -127 372 -357 713 -653 967 -316 273 -705 453 -1115 518 -142 22
-473 28 -610 11z"/>
</g>
</svg>
