<svg viewBox="0 0 900 180" preserveAspectRatio="none" xmlns="http://www.w3.org/2000/svg" version="1.1"><path d="M0 179L12.5 168C25 157 50 135 75 134.7C100 134.3 125 155.7 150 154C175 152.3 200 127.7 225 121.7C250 115.7 275 128.3 300 133.2C325 138 350 135 375 133.8C400 132.7 425 133.3 450 131.5C475 129.7 500 125.3 525 121.2C550 117 575 113 600 119.2C625 125.3 650 141.7 675 151.8C700 162 725 166 750 160.2C775 154.3 800 138.7 825 140C850 141.3 875 159.7 887.5 168.8L900 178L900 0L887.5 0C875 0 850 0 825 0C800 0 775 0 750 0C725 0 700 0 675 0C650 0 625 0 600 0C575 0 550 0 525 0C500 0 475 0 450 0C425 0 400 0 375 0C350 0 325 0 300 0C275 0 250 0 225 0C200 0 175 0 150 0C125 0 100 0 75 0C50 0 25 0 12.5 0L0 0Z" fill="#1394FE"/></svg>
