<svg viewBox="0 0 213 203" xmlns="http://www.w3.org/2000/svg" xmlns:xlink="http://www.w3.org/1999/xlink">
    <mask id="mask-hero" mask-type="alpha">
        <path d="M202.395 13.2261C219.758 31.625 213.268 72.453 200.992 106.272C188.715 140.091 170.65 166.725 142.939 184.073C115.404 201.596 78.0471 209.481 49.2841 196.689C20.3457 184.073 0.00113557 150.78 0.00113557 121.166C-0.174249 91.5528 19.9949 65.6192 40.3395 46.5193C60.8595 27.4195 81.5548 14.9784 112.598 6.91791C143.641 -1.31778 185.032 -5.34802 202.395 13.2261Z"/>
    </mask>
    <g mask="url(#mask-hero)">
        <path d="M202.395 13.2261C219.758 31.625 213.268 72.453 200.992 106.272C188.715 140.091 170.65 166.725 142.939 184.073C115.404 201.596 78.0471 209.481 49.2841 196.689C20.3457 184.073 0.00113557 150.78 0.00113557 121.166C-0.174249 91.5528 19.9949 65.6192 40.3395 46.5193C60.8595 27.4195 81.5548 14.9784 112.598 6.91791C143.641 -1.31778 185.032 -5.34802 202.395 13.2261Z" fill="#fff"/>
        <image xlink:href=""/>
    </g>
</svg>
