<svg viewBox="0 0 900 360" preserveAspectRatio="none" xmlns="http://www.w3.org/2000/svg" version="1.1"><path d="M0 315L12.5 314.8C25 314.7 50 314.3 75 317.8C100 321.3 125 328.7 150 338.3C175 348 200 360 225 357C250 354 275 336 300 333C325 330 350 342 375 341.7C400 341.3 425 328.7 450 321.2C475 313.7 500 311.3 525 318.3C550 325.3 575 341.7 600 349.2C625 356.7 650 355.3 675 349.2C700 343 725 332 750 329.5C775 327 800 333 825 338.2C850 343.3 875 347.7 887.5 349.8L900 352L900 0L887.5 0C875 0 850 0 825 0C800 0 775 0 750 0C725 0 700 0 675 0C650 0 625 0 600 0C575 0 550 0 525 0C500 0 475 0 450 0C425 0 400 0 375 0C350 0 325 0 300 0C275 0 250 0 225 0C200 0 175 0 150 0C125 0 100 0 75 0C50 0 25 0 12.5 0L0 0Z" fill="#0335EE"/><path d="M0 270L12.5 268.3C25 266.7 50 263.3 75 264.5C100 265.7 125 271.3 150 268.2C175 265 200 253 225 249.7C250 246.3 275 251.7 300 256.7C325 261.7 350 266.3 375 260.3C400 254.3 425 237.7 450 238.2C475 238.7 500 256.3 525 261C550 265.7 575 257.3 600 250.8C625 244.3 650 239.7 675 236.3C700 233 725 231 750 244.3C775 257.7 800 286.3 825 293.8C850 301.3 875 287.7 887.5 280.8L900 274L900 0L887.5 0C875 0 850 0 825 0C800 0 775 0 750 0C725 0 700 0 675 0C650 0 625 0 600 0C575 0 550 0 525 0C500 0 475 0 450 0C425 0 400 0 375 0C350 0 325 0 300 0C275 0 250 0 225 0C200 0 175 0 150 0C125 0 100 0 75 0C50 0 25 0 12.5 0L0 0Z" fill="#2856FF"/><path d="M0 202L12.5 201.2C25 200.3 50 198.7 75 193.2C100 187.7 125 178.3 150 184C175 189.7 200 210.3 225 211.2C250 212 275 193 300 183.8C325 174.7 350 175.3 375 186.7C400 198 425 220 450 229C475 238 500 234 525 228.7C550 223.3 575 216.7 600 209.8C625 203 650 196 675 196.2C700 196.3 725 203.7 750 200.7C775 197.7 800 184.3 825 190.2C850 196 875 221 887.5 233.5L900 246L900 0L887.5 0C875 0 850 0 825 0C800 0 775 0 750 0C725 0 700 0 675 0C650 0 625 0 600 0C575 0 550 0 525 0C500 0 475 0 450 0C425 0 400 0 375 0C350 0 325 0 300 0C275 0 250 0 225 0C200 0 175 0 150 0C125 0 100 0 75 0C50 0 25 0 12.5 0L0 0Z" fill="#0079FF"/><path d="M0 179L12.5 168C25 157 50 135 75 134.7C100 134.3 125 155.7 150 154C175 152.3 200 127.7 225 121.7C250 115.7 275 128.3 300 133.2C325 138 350 135 375 133.8C400 132.7 425 133.3 450 131.5C475 129.7 500 125.3 525 121.2C550 117 575 113 600 119.2C625 125.3 650 141.7 675 151.8C700 162 725 166 750 160.2C775 154.3 800 138.7 825 140C850 141.3 875 159.7 887.5 168.8L900 178L900 0L887.5 0C875 0 850 0 825 0C800 0 775 0 750 0C725 0 700 0 675 0C650 0 625 0 600 0C575 0 550 0 525 0C500 0 475 0 450 0C425 0 400 0 375 0C350 0 325 0 300 0C275 0 250 0 225 0C200 0 175 0 150 0C125 0 100 0 75 0C50 0 25 0 12.5 0L0 0Z" fill="#1394FE"/><path d="M0 63L12.5 58.2C25 53.3 50 43.7 75 45.7C100 47.7 125 61.3 150 68.3C175 75.3 200 75.7 225 68.8C250 62 275 48 300 44.8C325 41.7 350 49.3 375 57.8C400 66.3 425 75.7 450 81C475 86.3 500 87.7 525 81.8C550 76 575 63 600 53.2C625 43.3 650 36.7 675 39.8C700 43 725 56 750 68.3C775 80.7 800 92.3 825 92.3C850 92.3 875 80.7 887.5 74.8L900 69L900 0L887.5 0C875 0 850 0 825 0C800 0 775 0 750 0C725 0 700 0 675 0C650 0 625 0 600 0C575 0 550 0 525 0C500 0 475 0 450 0C425 0 400 0 375 0C350 0 325 0 300 0C275 0 250 0 225 0C200 0 175 0 150 0C125 0 100 0 75 0C50 0 25 0 12.5 0L0 0Z" fill="#4FACF7"/></svg>
