<?xml version="1.0" encoding="utf-8"?>
<svg version="1.1" xmlns="http://www.w3.org/2000/svg" xmlns:xlink="http://www.w3.org/1999/xlink" x="0px" y="0px"
     viewBox="0 0 1000 1000" enable-background="new 0 0 1000 1000" xml:space="preserve" fill="#41b883">
    <path d="M426.6,719.4l-39-39l185.4-185.4l39,39L426.6,719.4z M448.8,173.2H187.7v55.2h261.1V173.2z M800.7,235.3c9.1,0,18-3.7,24.4-10.1c6.4-6.4,10.1-15.3,10.1-24.4c0-9.1-3.7-18-10.1-24.4c-6.4-6.4-15.3-10.1-24.4-10.1c-9.1,0-17.9,3.7-24.4,10.1c-6.4,6.4-10.1,15.3-10.1,24.4c0,9.1,3.7,17.9,10.1,24.4C782.8,231.6,791.6,235.3,800.7,235.3z M676.5,235.3c9.1,0,17.9-3.7,24.4-10.1c6.4-6.4,10.1-15.3,10.1-24.4c0-9.1-3.7-18-10.1-24.4c-6.4-6.4-15.3-10.1-24.4-10.1c-9.1,0-18,3.7-24.4,10.1c-6.4,6.4-10.1,15.3-10.1,24.4c0,9.1,3.7,17.9,10.1,24.4C658.5,231.6,667.4,235.3,676.5,235.3z M552.3,235.3c9.1,0,17.9-3.7,24.4-10.1c6.4-6.4,10.1-15.3,10.1-24.4c0-9.1-3.7-18-10.1-24.4c-6.4-6.4-15.3-10.1-24.4-10.1c-9.1,0-18,3.7-24.4,10.1c-6.4,6.4-10.1,15.3-10.1,24.4c0,9.1,3.7,18,10.1,24.4C534.3,231.6,543.2,235.3,552.3,235.3z M990,59.1v881.7H10V59.1H990z M921,342.5H79v529.4v0h842V342.5z M921,128.2H79v145.3h842V128.2z M348.8,680.3L277,608.6l72.1-72.1l-39-39L198.9,608.6l110.8,110.8L348.8,680.3z M690.1,719.4l111.2-111.2L690.4,497.4l-39,39.1l71.7,71.7L651,680.3L690.1,719.4z"/>
</svg>