<?xml version="1.0" encoding="utf-8"?>
<svg version="1.1" xmlns="http://www.w3.org/2000/svg" xmlns:xlink="http://www.w3.org/1999/xlink" x="0px" y="0px"
     viewBox="0 0 1000 1000" enable-background="new 0 0 1000 1000" xml:space="preserve" fill="#41b883">
    <path d="M172.3,197.9l22.6,22.6l-92.6,92.6l72.1,72.1l93-93l21.1,21.1l-93,93l71.2,71.2L478.3,266L220.7,10L10,220.8l69.7,69.7L172.3,197.9z M734,521.7L522.5,733.3l71.2,71.2l93-93l21.1,21.1l-93,93l72.1,72.1l92.5-92.6l22.6,22.6l-92.5,92.6l69.7,69.7L990,779.2L734,521.7L734,521.7z M955.6,251.2c25.7-25.8,25.9-67.4,0.4-93L840.2,42.4c-25.5-25.5-67.2-25.4-93,0.4l-71.5,71.5l208.3,208.3L955.6,251.2z M84.6,827.7l86.5,86.5l174.2-61.9L146.4,653.5L84.6,827.7L84.6,827.7z M653.3,135.5L162.6,626.2l210,210l490.7-490.7L653.3,135.5L653.3,135.5z M257.9,625.8l394.9-394.9l23,23l-395,395L257.9,625.8z M303.9,671.8l394.9-394.9l23,23L326.9,694.8L303.9,671.8L303.9,671.8z M350,717.8l394.9-394.9l23,23L373,740.8L350,717.8z M37,961.8L138,925l-64.2-64.2L37,961.8z"/>
</svg>