<?xml version="1.0" encoding="utf-8"?>
<svg xmlns="http://www.w3.org/2000/svg" xmlns:xlink="http://www.w3.org/1999/xlink"
	 version="1.1" width="69" height="69" fill="#fff">
<path d="M37.3,4c0.5,0,0.8,0.4,0.8,0.4l8.3,9.2c-0.5,0.9-0.7,1.9-0.7,3c0,3.5,2.8,6.3,6.3,6.3c0.9,0,1.7-0.2,2.4-0.5
	L63.9,33c0,0,0.5,0.5,0,1.1c-0.2,0.3-0.6,0.3-0.8,0.3c-0.1,0-0.1,0-0.1,0l-25-1c0,0-1.2-0.1-2.1-1c-0.8-0.8-0.7-2.1-0.7-2.1
	l1.3-24.9c0,0-0.1-1,0.5-1.3C37,4,37.2,4,37.3,4 M52,11c3.1,0,5.6,2.5,5.6,5.6c0,3.1-2.5,5.6-5.6,5.6c-3.1,0-5.6-2.5-5.6-5.6
	C46.4,13.5,48.9,11,52,11 M37.3,1L37.3,1c-0.6,0-1.1,0.1-1.6,0.4c-1.7,0.8-2.4,2.6-2.3,4.1l-1.3,24.7c0,0.5-0.1,2.8,1.6,4.4
	c1.6,1.6,3.6,1.9,4,1.9l0.1,0l0.1,0l24.9,1c0.1,0,0.2,0,0.3,0c1.2,0,2.3-0.5,3.1-1.3c1.5-1.7,1.1-3.9-0.1-5.2l-7.8-8.6
	c1.4-1.5,2.2-3.5,2.2-5.7c0-4.7-3.8-8.6-8.6-8.6c-1.9,0-3.7,0.6-5.1,1.7l-6.5-7.2C39.9,2,38.9,1,37.3,1L37.3,1z"/>

<path d="M35,36.5c0.9,0,1.6,0.5,1.6,0.5l20.9,13.3c0,0,0.9,0.4,0.9,1.1c-0.1,0.7-0.9,0.9-0.9,0.9l-12.6,3
	c-1.1-1.9-3.1-3.1-5.4-3.1c-3.3,0-6,2.6-6.3,5.9l-13,3.1c0,0-0.1,0-0.2,0c-0.2,0-0.6-0.1-0.8-0.6c-0.2-0.5,0.2-1,0.2-1L32.5,38
	c0,0,0.7-1,1.9-1.4C34.6,36.6,34.8,36.5,35,36.5 M39.5,52.8c3.1,0,5.6,2.5,5.6,5.6c0,3.1-2.5,5.6-5.6,5.6c-3.1,0-5.6-2.5-5.6-5.6
	C34,55.3,36.4,52.8,39.5,52.8 M35,33.5c-0.5,0-1,0.1-1.4,0.2c-2.2,0.7-3.4,2.3-3.6,2.6l0,0l0,0l-13,21.5c-0.4,0.5-1.1,2-0.5,3.6
	c0.5,1.6,2,2.6,3.6,2.6c0.4,0,0.7-0.1,0.9-0.1l10.6-2.5c1.2,3.2,4.3,5.5,8,5.5c4.7,0,8.6-3.9,8.6-8.6c0-0.3,0-0.6,0-0.8l10.2-2.4
	c1.5-0.3,3.1-1.5,3.2-3.6c0.1-1.9-1.1-3.3-2.4-4L38.3,34.5C37.9,34.3,36.6,33.5,35,33.5L35,33.5z"/>

<path d="M18.3,8.2c0.1,0,0.1,0,0.2,0c0.5,0.1,0.8,0.7,0.8,0.7l12.3,22c0,0,0.6,1.1,0.3,2.4c-0.2,1.1-1.4,1.7-1.4,1.7
	L8.7,47c0,0-0.4,0.4-0.9,0.4c-0.2,0-0.3,0-0.5-0.1C6.7,46.8,7,46,7,46l3.7-12.9c2.9-0.5,5.2-3.1,5.2-6.2c0-1.9-0.8-3.5-2.1-4.7
	l3.8-13.3C17.6,8.8,17.7,8.2,18.3,8.2 M9.6,21.2c3.1,0,5.6,2.5,5.6,5.6c0,3.1-2.5,5.6-5.6,5.6c-3.1,0-5.6-2.5-5.6-5.6
	C4,23.7,6.5,21.2,9.6,21.2 M18.3,5.2c-2,0-3.3,1.4-3.7,2.8l-3,10.5c-0.7-0.2-1.4-0.3-2.1-0.3c-4.7,0-8.6,3.9-8.6,8.6
	c0,3.8,2.5,7.1,6,8.2L4.1,45.1c-0.5,1.4-0.2,3.4,1.5,4.5c0.6,0.4,1.4,0.7,2.1,0.7c1.1,0,2-0.5,2.5-0.8l21.5-11.9
	c0.4-0.2,2.4-1.4,2.9-3.7c0.5-2.2-0.3-4.1-0.5-4.4l0,0l0,0L21.9,7.5c-0.3-0.6-1.2-1.9-2.9-2.2C18.8,5.2,18.6,5.2,18.3,5.2
	L18.3,5.2z"/>
</svg>