<?xml version="1.0" encoding="utf-8"?>
<svg version="1.1" xmlns="http://www.w3.org/2000/svg" xmlns:xlink="http://www.w3.org/1999/xlink" x="0px" y="0px"
     viewBox="0 0 1000 1000" enable-background="new 0 0 1000 1000" xml:space="preserve" fill="#41b883">
    <g transform="translate(0.000000,512.000000) scale(0.100000,-0.100000)">
        <path d="M2801.2,5014.1c-364.2-44.1-730.3-224.3-989.1-483c-210.8-210.8-348.9-452.4-446.6-778.2c-38.3-132.3-38.3-161-44.1-3109l-5.7-2976.8H825c-548.2,0-580.8-5.7-670.9-126.5c-53.7-70.9-55.6-78.6-53.7-283.7c9.6-592.3,243.4-1153.9,642.1-1535.3c243.4-231.9,461.9-352.7,803.1-448.5l182.1-49.8l2681.6-5.7c2328.9-3.8,2702.7-1.9,2850.3,24.9c669,115,1169.2,567.4,1364.7,1236.3l42.2,143.8l5.7,2976.8l3.9,2974.9h484.9c463.9,0,488.8,1.9,569.3,44.1c63.2,30.7,97.7,65.2,130.3,128.4c42.2,78.6,44.1,101.6,34.5,287.5c-59.4,1061.9-598,1822.9-1391.6,1966.6c-116.9,21.1-653.6,24.9-2894.4,23C4097,5023.7,2833.8,5017.9,2801.2,5014.1z M8595.7,4366.2c-151.4-103.5-348.8-419.8-460-738l-63.2-182.1l-9.6-3392.7l-9.6-3392.7l-46-115c-178.3-448.5-567.4-716.9-1040.8-718.8c-692-1.9-1192.2,475.4-1309.2,1245.9c-15.3,99.7-28.8,226.2-28.8,279.8c0,107.4-46,195.5-139.9,264.5c-53.7,40.3-63.2,40.3-1807.5,46l-1751.9,3.8V567.1c0,3103.3-1.9,2997.9,93.9,3216.4c97.8,218.5,318.2,439,536.7,536.7c210.8,93.9,111.2,90.1,3203,92l2903.9,1.9L8595.7,4366.2z"/>
        <path d="M3951.3,1930c-72.8-38.3-1343.7-1303.4-1382-1372.4c-34.5-67.1-34.5-193.6,0-260.7c15.3-28.8,327.8-350.8,695.8-716.9c578.9-577,676.6-665.1,738-676.6c147.6-26.8,285.6,38.3,350.8,164.8c34.5,63.3,38.3,193.6,7.7,253c-11.5,23-258.8,281.8-550.1,575l-531,531l531,532.9c291.3,291.4,538.6,550.1,550.1,573.1c57.5,115,5.8,285.6-116.9,375.7C4175.5,1960.6,4026,1970.2,3951.3,1930z"/>
        <path d="M5785.6,1928.1c-126.5-61.3-193.6-201.3-166.7-345c11.5-63.3,86.3-145.7,557.8-621l544.4-546.3l-529-527.1c-301-297.1-542.5-552-555.9-586.5c-38.3-88.2-32.6-161,17.2-254.9c59.4-113.1,145.7-157.2,283.7-149.5c86.3,5.8,122.7,19.2,182.1,67.1c40.2,32.6,352.7,339.3,692,680.5c536.7,538.6,619.1,630.6,638.3,701.5c42.2,162.9,42.2,162.9-684.3,889.4c-450.4,448.5-690,674.7-738,695.8C5935.2,1968.3,5866.2,1968.3,5785.6,1928.1z"/>
    </g>
</svg>