<?xml version="1.0" encoding="utf-8"?>
<svg version="1.1" id="logo" xmlns="http://www.w3.org/2000/svg" xmlns:xlink="http://www.w3.org/1999/xlink" x="0px" y="0px"
	 viewBox="0 0 708.66 708.66" style="enable-background:new 0 0 708.66 708.66;" xml:space="preserve" fill="#fff">
<path d="M263.52,694.86c-8.28-99.4-108.6-131.61-150.94-144.49c-42.34-12.88-47.86-37.73-47.86-65.34
	c0-27.61-11.07-37.73-11.04-71.79c-0.92-19.33,21.17-32.21,41.42-39.57c20.25-7.36,27.61-34.05,46.02-91.11
	s101.24-57.06,127.01-57.06s19.33-36.81,17.49-82.83c-1.84-46.02,14.73-34.97,23.93-16.57c9.2,18.41,7.36,48.78,32.21,61.66
	c24.85,12.88,77.31-141.73,96.64-155.54c19.33-13.81,16.57,127.01,56.14,237.45c26.68,74.46,122.8,174.01,182.61,230.98
	c20.25-44.6,31.53-94.14,31.53-146.31C708.66,158.64,550.02,0,354.33,0S0,158.64,0,354.33c0,164.38,111.94,302.61,263.74,342.64
	C263.66,696.27,263.58,695.57,263.52,694.86z"/>
</svg>
